<svg xmlns="http://www.w3.org/2000/svg" width="1024" height="1024" fill="none"><path fill="url(#a)" d="M61.311 477.661C79.458 239.476 279.808 56.5333 518.657 60.0499 757.505 63.5679 952.381 252.331 963.507 490.948c7.83 167.921-78.175 328.315-223.274 411.198-145.099 84.882-325.317 82.228-467.853-6.89-142.536-89.119-223.841-249.977-211.069-417.595z"/><path fill="#fefefe" d="M310.658 467.419c-3.32-9.281-7.386-24.508-9.279-34.056-7.062-35.637-24.709-108.747 6.541-135.363 3.811 50.928 24.785 76.939 61.265 110.127 22.467 20.438 32.213 26.897 43.338 55.248 3.58 12.875 5.436 21.094 5.477 34.543.109 37.367-28.185 58.991-62.589 37.666-22.417-13.895-39.071-42.507-44.753-68.165z"/><path fill="#fefefe" d="M374.663 214c4.098 1.89 7.645 4.384 11.15 7.202 29.957 24.087 106.075 109.396 123.699 142.598 5.429 10.226 8.748 22.606 10 34.087 1.941 17.815-1.794 34.781-13.06 48.855-27.856 26.644-64.87 12.775-85.227-15.542-5.439-7.643-9.771-16.022-12.866-24.887-11.529-32.041-38.956-159.6-33.695-192.313z"/><path fill="#fefefe" d="M489.448 206.033c43.44-2.071 117.229 92.944 136.935 129.889 13.455 25.227 20.154 64.518-.671 88.031-18.782 17.113-40.177 7.097-57.044-6.535-49.458-39.968-26.69-99.978-45.937-153.171-9.862-27.254-19.136-35.561-37.731-56.174 1.094-1.81 1.604-1.343 4.448-2.04z"/><path fill="#fefefe" d="M653.832 249.1c.669-.039 1.338-.069 2.008-.089 13.184-.359 26.291 7.995 35.151 17.325 35.31 37.176 93.523 119.257 46.273 166.825-2.313 1.825-5.502 3.97-8.205 5.147-8.04 3.491-17.136 3.59-25.249.277-10.178-4.197-17.568-11.531-23.703-20.536-26.273-38.556 1.947-77.135-5.038-119.204-2.163-13.095-5.591-24.569-12.998-35.995-2.263-3.491-7.66-9.471-9.111-12.816l.832-.934z"/><path fill="#fefefe" d="M540.396 484.691c12.268-.998 21.422-1.036 33.505.692 25.165 6.055 34.775 12.357 54.621 27.31 15.454 11.644 34.511-3.433 50.962-7.463 25.887-6.463 53.289-2.418 76.188 11.245 49.125 29.903 62.468 94.38 32.309 142.595-16.315 25.705-43.511 42.566-73.844 45.78-14.478 1.59-29.137.942-43.706 2.777-41.191 5.188-73.296 26.843-100.306 57.227-6.44 6.827-12.034 15.206-18.588 21.85-55.409 56.162-156.282 34.381-172.272-46.48-8.117-41.043 5.697-81.949 39.563-107.311 9.568-7.164 22.87-11.858 29.328-22.412 5.516-9.748 3.592-22.385 4.47-33.128 1.273-15.551 7.427-33.141 16.241-46.047 18.689-27.366 39.716-40.113 71.629-46.635z"/><path fill="#fefefe" d="M220.568 479.563c.793-4.574 5.074-22.204 11.442-19.226l1.267 4.088c9.493 35.568 34.167 54.87 65.066 72.668 9.62 5.543 19.511 11.116 28.054 18.234 23.86 19.883 34.995 74.922-4.393 84.628-23.048 5.516-50.6-11.701-62.66-30.579-17.491-27.374-29.981-62.198-36.848-93.985-2.571-11.898-3.202-23.878-2.028-35.828z"/><defs><linearGradient id="a" x1="307.512" x2="696.512" y1="110.55" y2="925.05" gradientUnits="userSpaceOnUse"><stop stop-color="#EA0460"/><stop offset="1" stop-color="#A555FF"/></linearGradient></defs></svg>
