<svg xmlns="http://www.w3.org/2000/svg" width="120" height="120" fill="none"><circle cx="60" cy="60" r="60" fill="#213147"/><path fill="#213147" d="M27.656 44.035v30.993c0 1.992 1.044 3.795 2.783 4.807L57.29 95.33c1.708.98 3.827.98 5.535 0l26.85-15.496a5.553 5.553 0 0 0 2.782-4.807V44.035c0-1.993-1.043-3.795-2.782-4.807L62.824 23.73a5.575 5.575 0 0 0-5.535 0L30.44 39.228c-1.707.98-2.751 2.814-2.751 4.807h-.032Z"/><path fill="#12AAFF" d="m65.892 65.542-3.827 10.5a1.51 1.51 0 0 0 0 .917l6.578 18.058 7.622-4.396-9.14-25.079a.659.659 0 0 0-1.233 0Zm7.684-17.648a.659.659 0 0 0-1.233 0l-3.827 10.5c-.094.284-.094.6 0 .916l10.785 29.57 7.621-4.396-13.346-36.559v-.031Z"/><path fill="#9DCCED" d="M60.04 24.902c.19 0 .38.063.538.158L89.61 41.822c.348.19.538.569.538.948v33.523c0 .38-.221.759-.537.949L60.578 94.003a1.066 1.066 0 0 1-.537.158c-.19 0-.38-.063-.538-.158L30.471 77.242c-.348-.19-.538-.57-.538-.949V42.739c0-.38.222-.76.538-.95l29.032-16.76c.158-.096.348-.159.538-.159v.032Zm0-4.902a6.015 6.015 0 0 0-3.004.79L28.004 37.553A5.965 5.965 0 0 0 25 42.739V76.26a5.965 5.965 0 0 0 3.004 5.187l29.032 16.761a5.93 5.93 0 0 0 3.005.791 6.014 6.014 0 0 0 3.004-.79l29.032-16.762a5.965 5.965 0 0 0 3.005-5.187V42.74a5.965 5.965 0 0 0-3.005-5.187L63.014 20.791A5.93 5.93 0 0 0 60.009 20h.032Z"/><path fill="#213147" d="m40.813 88.911 2.688-7.337 5.376 4.46-5.029 4.617-3.035-1.74Z"/><path fill="#fff" d="M57.575 40.366h-7.37c-.537 0-1.043.348-1.233.853l-15.78 43.264 7.621 4.396 17.394-47.66a.652.652 0 0 0-.6-.885l-.032.032Zm12.902 0h-7.369c-.537 0-1.043.348-1.233.853L43.85 90.62l7.621 4.395L71.078 41.22a.652.652 0 0 0-.6-.886v.032Z"/></svg>