<svg xmlns="http://www.w3.org/2000/svg" width="120" height="120" fill="none"><circle cx="60" cy="60" r="60" fill="#000"/><mask id="a" width="62" height="62" x="29" y="29" maskUnits="userSpaceOnUse" style="mask-type:luminance"><path fill="#fff" d="M78.285 29.523H41.714c-6.733 0-12.19 5.458-12.19 12.191v36.571c0 6.733 5.457 12.19 12.19 12.19h36.571c6.733 0 12.19-5.457 12.19-12.19V41.714c0-6.733-5.457-12.19-12.19-12.19Z"/></mask><g mask="url(#a)"><path fill="#000" d="M78.285 29.523H41.714c-6.733 0-12.19 5.458-12.19 12.191v36.571c0 6.733 5.457 12.19 12.19 12.19h36.571c6.733 0 12.19-5.457 12.19-12.19V41.714c0-6.733-5.457-12.19-12.19-12.19Z"/><path stroke="gray" stroke-width=".4" d="M79.708 44.954a6.388 6.388 0 1 0-12.775 0 6.388 6.388 0 0 0 12.775 0ZM49.507 71.506a.158.158 0 0 1-.158-.158l-.006-26.493a.159.159 0 0 0-.159-.159l-6.918-.003a.158.158 0 0 0-.158.159l-.006 32.969a.158.158 0 0 0 .158.158h31.262a.158.158 0 0 0 .159-.158l-.003-6.153a.159.159 0 0 0-.159-.159l-24.012-.003Z"/><path fill="#fff" d="M73.32 51.342a6.388 6.388 0 1 0 0-12.775 6.388 6.388 0 0 0 0 12.775ZM49.507 71.506l24.012.003a.158.158 0 0 1 .159.159l.003 6.153a.159.159 0 0 1-.159.158H42.26a.159.159 0 0 1-.158-.158l.006-32.97a.159.159 0 0 1 .158-.158l6.918.003a.158.158 0 0 1 .159.159l.006 26.493a.158.158 0 0 0 .158.158Z"/></g><path stroke="#fff" stroke-width="2" d="M78.286 28H41.714C34.14 28 28 34.14 28 41.714v36.572C28 85.86 34.14 92 41.714 92h36.572C85.86 92 92 85.86 92 78.286V41.714C92 34.14 85.86 28 78.286 28Z"/></svg>