<svg xmlns="http://www.w3.org/2000/svg" width="120" height="120" fill="none"><circle cx="60" cy="60" r="60" fill="#8247E5"/><path fill="#EDF0F4" d="M78.003 47.95c-1.28-.736-2.925-.736-4.387 0l-10.235 6.07-6.945 3.864-10.052 6.072c-1.28.735-2.925.735-4.387 0l-7.859-4.784c-1.279-.736-2.193-2.208-2.193-3.863v-9.2c0-1.471.731-2.943 2.193-3.863l7.86-4.6c1.279-.735 2.924-.735 4.386 0l7.859 4.784c1.28.736 2.193 2.208 2.193 3.864v6.071l6.945-4.047v-6.256c0-1.471-.73-2.943-2.193-3.863l-14.621-8.647c-1.28-.736-2.925-.736-4.387 0l-14.987 8.83C25.731 39.12 25 40.592 25 42.063v17.294c0 1.472.731 2.944 2.193 3.864l14.804 8.647c1.28.735 2.925.735 4.387 0l10.052-5.888 6.945-4.047 10.052-5.888c1.28-.735 2.925-.735 4.387 0l7.859 4.6c1.28.736 2.193 2.208 2.193 3.863v9.2c0 1.471-.731 2.943-2.193 3.863l-7.676 4.6c-1.28.735-2.925.735-4.387 0l-7.859-4.6c-1.28-.736-2.193-2.208-2.193-3.864V67.82l-6.945 4.047v6.072c0 1.471.73 2.943 2.193 3.863l14.804 8.647c1.28.736 2.924.736 4.387 0l14.804-8.647c1.28-.736 2.193-2.207 2.193-3.863V60.46c0-1.472-.731-2.944-2.193-3.864L78.003 47.95Z"/></svg>