<svg xmlns="http://www.w3.org/2000/svg" width="512" height="512" fill="none"><path fill="url(#a)" fill-rule="evenodd" d="M239.125 215.367c18.889-10.975 22.353-40.523 7.736-65.999-14.616-25.476-97.871-104.167-103.494-100.901-5.623 3.266 20.473 115.166 35.09 140.642 14.617 25.476 41.778 37.232 60.668 26.258Zm106.36 182.112c15.116-8.781 33.262-12.202 50.685-13.263 11.026-.671 22.07-3.861 32.288-9.797 35.191-20.446 47.248-65.727 26.93-101.139-20.317-35.413-65.316-47.545-100.507-27.1-7.109 4.129-16.36 3.619-22.999-1.238-22.793-16.675-54.117-19.336-80.096-4.243-25.724 14.945-39.087 43.159-36.48 71.09.818 8.766-3.712 17.637-11.289 22.04-35.191 20.445-47.249 65.726-26.931 101.139 20.317 35.412 65.316 47.546 100.508 27.1a73.489 73.489 0 0 0 22.201-19.839c12.566-16.967 27.48-34.17 45.69-44.75Zm-16.92-271.206c15.098 26.317 14.123 55.328-2.178 64.798-16.303 9.472-41.757-4.184-56.857-30.5-5.056-8.813-6.67-20.755-8.484-34.171-3.6-26.643-7.988-59.093-41.684-84.367 25.975-15.09 94.104 57.925 109.203 84.24Zm-153.511 152.72c-16.561 9.621-42.225-3.912-57.325-30.229-15.098-26.315-43.559-122.378-17.172-137.708 4.675 42.136 30.578 62.085 51.846 78.465 10.708 8.246 20.241 15.588 25.298 24.401 15.098 26.317 13.913 55.45-2.647 65.071Zm241.61-139.948c8.269 23.011 2.229 47.334-13.49 54.325-15.718 6.992-35.164-5.995-43.432-29.006-2.769-7.707-2.016-17.838-1.171-29.219 1.678-22.604 3.722-50.136-20.728-73.375 25.045-11.14 70.552 54.263 78.821 77.275ZM135.633 348.803c-13.887 10.21-37.85 3.319-53.519-15.392-15.67-18.712-49.189-91.082-27.06-107.352 7.765 32.935 32.488 44.915 52.787 54.749 10.221 4.952 19.319 9.359 24.567 15.626 15.669 18.711 17.114 42.157 3.225 52.369Z" clip-rule="evenodd"/><defs><linearGradient id="a" x1="142.089" x2="355.616" y1="49.209" y2="416.738" gradientUnits="userSpaceOnUse"><stop offset=".427" stop-color="#E8006F"/><stop offset=".74" stop-color="#AC59FF"/></linearGradient></defs></svg>