<svg width="1024" height="1024" viewBox="0 0 1024 1024" fill="none" xmlns="http://www.w3.org/2000/svg">
<path d="M61.311 477.661C79.458 239.476 279.808 56.5333 518.657 60.0499C757.505 63.5679 952.381 252.331 963.507 490.948C971.337 658.869 885.332 817.263 740.233 902.146C595.134 987.028 414.916 984.374 272.38 895.256C129.844 806.137 48.5386 645.279 61.311 477.661Z" fill="url(#paint0_linear_417_10415)"/>
<path d="M310.658 467.419C307.338 458.138 303.272 442.911 301.379 433.363C294.317 397.726 276.67 324.616 307.92 298C311.731 348.928 332.705 374.939 369.185 408.127C391.652 428.565 401.398 435.024 412.523 463.375C416.103 476.25 417.959 484.469 418 497.918C418.109 535.285 389.815 556.909 355.411 535.584C332.994 521.689 316.34 493.077 310.658 467.419Z" fill="#FEFEFE"/>
<path d="M374.663 214C378.761 215.89 382.308 218.384 385.813 221.202C415.77 245.289 491.888 330.598 509.512 363.8C514.941 374.026 518.26 386.406 519.511 397.887C521.452 415.702 517.717 432.668 506.451 446.742C478.595 473.386 441.581 459.517 421.224 431.2C415.785 423.557 411.453 415.178 408.358 406.313C396.829 374.272 369.402 246.713 374.663 214Z" fill="#FEFEFE"/>
<path d="M489.448 206.033C532.888 203.962 606.677 298.977 626.383 335.922C639.838 361.149 646.537 400.44 625.712 423.953C606.93 441.066 585.535 431.05 568.668 417.418C519.21 377.45 541.978 317.44 522.731 264.247C512.869 236.993 503.595 228.686 485 208.073C486.094 206.263 486.604 206.73 489.448 206.033Z" fill="#FEFEFE"/>
<path d="M653.832 249.1C654.501 249.061 655.17 249.031 655.84 249.011C669.024 248.652 682.131 257.006 690.991 266.336C726.301 303.512 784.514 385.593 737.264 433.161C734.951 434.986 731.762 437.131 729.059 438.308C721.019 441.799 711.923 441.898 703.81 438.585C693.632 434.388 686.242 427.054 680.107 418.049C653.834 379.493 682.054 340.914 675.109 298.845C672.946 285.75 669.518 274.276 662.111 262.85C659.848 259.359 654.451 253.379 653 250.034L653.832 249.1Z" fill="#FEFEFE"/>
<path d="M540.396 484.691C552.664 483.693 561.818 483.655 573.901 485.383C599.066 491.438 608.676 497.74 628.522 512.693C643.976 524.337 663.033 509.26 679.484 505.23C705.371 498.767 732.773 502.812 755.672 516.475C804.797 546.378 818.14 610.855 787.981 659.07C771.666 684.775 744.47 701.636 714.137 704.85C699.659 706.44 685 705.792 670.431 707.627C629.24 712.815 597.135 734.47 570.125 764.854C563.685 771.681 558.091 780.06 551.537 786.704C496.128 842.866 395.255 821.085 379.265 740.224C371.148 699.181 384.962 658.275 418.828 632.913C428.396 625.749 441.698 621.055 448.156 610.501C453.672 600.753 451.748 588.116 452.626 577.373C453.899 561.822 460.053 544.232 468.867 531.326C487.556 503.96 508.583 491.213 540.396 484.691Z" fill="#FEFEFE"/>
<path d="M220.568 479.563C221.361 474.989 225.642 457.359 232.01 460.337L233.277 464.425C242.77 499.993 267.444 519.295 298.343 537.093C307.963 542.636 317.854 548.209 326.397 555.327C350.257 575.21 361.392 630.249 322.104 639.955C299.056 645.471 271.504 628.254 259.444 609.376C241.953 582.002 229.463 547.178 222.596 515.391C220.025 503.493 219.394 491.513 220.568 479.563Z" fill="#FEFEFE"/>
<defs>
<linearGradient id="paint0_linear_417_10415" x1="307.512" y1="110.55" x2="696.512" y2="925.05" gradientUnits="userSpaceOnUse">
<stop stop-color="#EA0460"/>
<stop offset="1" stop-color="#A555FF"/>
</linearGradient>
</defs>
</svg>
